HIERARCHY
ROOT Hips
{
	OFFSET -3.958830 18.904000 13.208200
	CHANNELS 6 Xposition Yposition Zposition Zrotation Yrotation Xrotation 
	JOINT LHipJoint
	{
		OFFSET 0.000000 0.000000 0.000000
		CHANNELS 3 Zrotation Yrotation Xrotation
		JOINT LeftUpLeg
		{
			OFFSET 1.800000 -1.400000 0.085000
			CHANNELS 3 Zrotation Yrotation Xrotation
			JOINT LeftLeg
			{
				OFFSET 2.215000 -6.000000 0.000000
				CHANNELS 3 Zrotation Yrotation Xrotation
				JOINT LeftFoot
				{
					OFFSET 2.500000 -6.900000 0.000000
					CHANNELS 3 Zrotation Yrotation Xrotation
					JOINT LeftToeBase
					{
						OFFSET 0.200000 -0.500000 1.950000
						CHANNELS 3 Zrotation Yrotation Xrotation
						End Site
						{
							OFFSET 0.000000 0.000000 0.000000
						}
					}
				}
			}
		}
	}
	JOINT RHipJoint
	{
		OFFSET 0.000000 0.000000 0.000000
		CHANNELS 3 Zrotation Yrotation Xrotation
		JOINT RightUpLeg
		{
			OFFSET -1.800000 -1.400000 0.085000
			CHANNELS 3 Zrotation Yrotation Xrotation
			JOINT RightLeg
			{
				OFFSET -2.215000 -6.000000 0.000000
				CHANNELS 3 Zrotation Yrotation Xrotation
				JOINT RightFoot
				{
					OFFSET -2.500000 -6.900000 0.000000
					CHANNELS 3 Zrotation Yrotation Xrotation
					JOINT RightToeBase
					{
						OFFSET -0.200000 -0.500000 1.950000
						CHANNELS 3 Zrotation Yrotation Xrotation
						End Site
						{
							OFFSET 0.000000 0.000000 0.000000
						}
					}
				}
			}
		}
	}
	JOINT LowerBack
	{
		OFFSET 0.000000 0.000000 0.000000
		CHANNELS 3 Zrotation Yrotation Xrotation
		JOINT Spine
		{
			OFFSET -0.087000 1.940000 -0.288900
			CHANNELS 3 Zrotation Yrotation Xrotation
			JOINT Spine1
			{
				OFFSET 0.000000 1.950000 0.060000
				CHANNELS 3 Zrotation Yrotation Xrotation
				JOINT Neck
				{
					OFFSET 0.000000 0.000000 0.000000
					CHANNELS 3 Zrotation Yrotation Xrotation
					JOINT Neck1
					{
						OFFSET 0.000000 1.600000 0.340000
						CHANNELS 3 Zrotation Yrotation Xrotation
						JOINT Head
						{
							OFFSET 0.000000 1.667000 -0.240000
							CHANNELS 3 Zrotation Yrotation Xrotation
							End Site
							{
								OFFSET 0.000000 0.000000 0.000000
							}
						}
					}
				}
				JOINT LeftShoulder
				{
					OFFSET 0.000000 0.000000 0.000000
					CHANNELS 3 Zrotation Yrotation Xrotation
					JOINT LeftArm
					{
						OFFSET 2.700000 1.550000 -0.730000
						CHANNELS 3 Zrotation Yrotation Xrotation
						JOINT LeftForeArm
						{
							OFFSET 5.450000 0.000000 0.000000
							CHANNELS 3 Zrotation Yrotation Xrotation
							JOINT LeftHand
							{
								OFFSET 3.450000 0.000000 0.000000
								CHANNELS 3 Zrotation Yrotation Xrotation
								JOINT LeftHandIndex1
								{
									OFFSET 0.750000 0.000000 0.000000
									CHANNELS 3 Zrotation Yrotation Xrotation
									End Site
									{
										OFFSET 0.000000 0.000000 0.000000
									}
								}
							}
						}
					}
				}
				JOINT RightShoulder
				{
					OFFSET 0.000000 0.000000 0.000000
					CHANNELS 3 Zrotation Yrotation Xrotation
					JOINT RightArm
					{
						OFFSET -2.700000 1.550000 -0.730000
						CHANNELS 3 Zrotation Yrotation Xrotation
						JOINT RightForeArm
						{
							OFFSET -5.450000 0.000000 0.000000
							CHANNELS 3 Zrotation Yrotation Xrotation
							JOINT RightHand
							{
								OFFSET -3.450000 0.000000 0.000000
								CHANNELS 3 Zrotation Yrotation Xrotation
								JOINT RightHandIndex1
								{
									OFFSET -0.750000 0.000000 0.000000
									CHANNELS 3 Zrotation Yrotation Xrotation
									End Site
									{
										OFFSET 0.000000 0.000000 0.000000
									}
								}
							}
						}
					}
				}
			}
		}
	}
}
MOTION
Frames: 10
Frame Time: 0.016667
-0.442970 16.958850 -1.777660 -3.190237 -10.484546 2.567040 -15.666656 9.275236 6.809458 31.578065 -2.187005 -38.600818 -55.216359 21.222518 17.668583 1.424365 10.903367 0.792998 0.365110 0.120390 0.673390 18.507700 -7.338268 3.711321 -26.952076 4.781797 -36.652595 31.262943 -22.604659 37.644181 -1.376516 -8.989803 1.134462 -0.010520 -0.204970 0.236290 -3.531878 -1.996706 -10.178756 19.270365 -3.109521 25.817148 -2.323083 2.223099 3.744849 4.800983 -1.196756 -10.835056 -3.480383 0.694988 33.176863 -18.209200 11.095400 -14.730340 -18.810809 -7.858370 4.350353 -30.533659 1.325619 -6.447996 -96.222159 -80.867593 75.326844 -4.222125 1.750812 0.451550 0.020500 0.227030 -0.061860 8.739794 10.536857 7.052832 41.392325 -1.338721 -13.662334 10.480604 56.196723 3.607016 2.012702 -1.599838 -0.027390 -0.040660 -0.156720 -0.350190 
-0.443470 16.883430 -1.788560 -3.312152 -10.481736 2.081170 -15.725336 9.243035 6.901083 32.526419 -1.806041 -38.263012 -57.397868 21.330637 16.684547 1.477671 10.996198 0.783988 0.347810 0.097370 0.654150 18.477096 -7.165965 3.735082 -27.811015 4.611222 -36.619230 32.247704 -23.529632 38.134555 -1.438709 -9.231844 1.073756 -0.022320 -0.188490 0.231570 -3.414825 -2.263855 -10.266102 19.154264 -3.432703 27.169216 -1.643707 2.085061 3.402933 4.778438 -1.189331 -10.926277 -3.453698 1.063843 33.170168 -17.937090 11.429280 -14.762710 -18.949789 -8.452256 4.304000 -28.912663 3.636407 -8.944339 -113.637220 -78.306834 93.409811 -3.848143 2.041933 0.462810 0.022910 0.218360 -0.057950 8.966776 11.042027 7.291935 39.552567 -2.135882 -14.048480 9.496289 58.862943 3.447391 1.986372 -1.611827 -0.042410 -0.032800 -0.147230 -0.350510 
-0.438830 16.757820 -1.801370 -3.492340 -10.628078 1.457782 -15.813309 9.187794 6.987704 33.612136 -1.259626 -37.718198 -60.157544 21.353554 15.280344 1.533301 11.070961 0.772732 0.320600 0.070800 0.651340 18.428994 -6.912751 3.815144 -29.356270 4.378495 -36.786464 34.078758 -24.995179 38.669734 -1.534281 -9.592030 0.968145 -0.037870 -0.188990 0.228940 -3.238226 -2.596265 -10.384136 19.120161 -3.721029 29.071967 -0.838255 2.070885 3.121903 4.983769 -0.807975 -11.034556 -2.633975 1.325227 32.583665 -18.887230 12.432250 -15.285010 -19.366994 -8.723977 4.646437 -25.412976 6.083929 -8.899776 -132.591438 -76.560458 113.865349 -3.634581 2.766027 0.466690 0.030440 0.213480 -0.076740 9.045317 11.249884 7.278855 37.580135 -2.903106 -14.799920 6.411402 63.480449 2.221301 1.941293 -1.623557 -0.055040 -0.038810 -0.132710 -0.363230 
-0.429030 16.624910 -1.810820 -3.899971 -10.725833 0.881216 -15.871379 9.128786 7.041711 34.576056 -0.698919 -37.387991 -62.392389 21.997104 14.828962 1.620447 11.209795 0.749839 0.277040 0.019900 0.645840 18.403842 -6.710462 3.915445 -30.729564 4.198504 -37.066387 35.980171 -26.465350 39.101848 -1.614175 -9.924357 0.881315 -0.070340 -0.192300 0.225800 -3.135857 -2.798336 -10.493771 19.754870 -4.047339 30.497907 -0.275032 2.145802 2.911262 5.159954 -0.104739 -11.355752 -1.335845 1.023910 32.700704 -20.188540 13.366460 -14.352900 -19.888397 -9.533706 5.333770 -21.206798 8.855164 -8.126141 -143.760425 -74.384254 125.162253 -3.644430 3.059326 0.448450 0.047490 0.199280 -0.097610 9.211192 11.838652 7.334668 35.845929 -3.575170 -15.714618 0.563824 67.346462 -0.998178 1.901562 -1.602768 -0.061050 -0.062080 -0.122790 -0.374500 
-0.413710 16.512760 -1.818180 -4.418312 -11.133698 0.050797 -15.903396 9.141836 7.008825 35.080093 -0.197400 -36.813850 -63.468693 23.108857 15.356898 1.698283 11.352509 0.710775 0.279370 0.018710 0.667520 18.386189 -6.571613 4.019934 -31.753334 4.299838 -37.243009 37.657116 -27.886536 39.875417 -1.722843 -10.240202 0.792443 -0.086320 -0.218410 0.229950 -3.080991 -2.957898 -10.556064 20.638994 -4.322801 31.943673 0.210720 2.295149 2.880301 5.202513 0.350739 -11.541838 -0.519388 0.816180 33.282448 -20.683140 13.549770 -14.434470 -19.822173 -10.066841 5.862417 -17.896549 11.024780 -7.463462 -145.105443 -72.514242 125.078987 -3.659052 3.160826 0.444540 0.034030 0.212320 -0.111160 9.037603 12.305180 7.152983 34.385434 -3.362580 -16.491407 -7.337507 69.417831 -5.697932 1.865795 -1.524137 -0.040900 -0.082790 -0.130530 -0.377660 
-0.403930 16.429000 -1.818680 -4.561001 -11.416176 -0.391734 -15.908018 9.129555 6.968204 35.090687 0.103134 -36.847486 -64.017357 24.119137 16.073692 1.718723 11.483243 0.683603 0.275710 0.010320 0.679580 18.390919 -6.500115 4.103708 -32.568733 4.388030 -37.461909 38.797418 -28.828172 40.340079 -1.791534 -10.435766 0.750758 -0.085530 -0.217630 0.215370 -3.092227 -2.986353 -10.585579 21.241738 -4.365383 32.429546 0.669884 2.380749 3.013711 5.024819 0.479310 -11.555942 -0.288205 0.714532 33.694996 -21.126960 13.350250 -14.853170 -19.311123 -10.138827 6.191163 -15.602132 12.502816 -6.742522 -141.185347 -71.080016 118.649469 -3.686870 3.150651 0.465670 0.028410 0.217810 -0.111840 8.874536 12.382292 6.792785 34.062363 -2.586437 -17.221497 -15.966156 70.331288 -10.925529 1.803084 -1.373465 -0.061790 -0.055390 -0.132120 -0.385860 
-0.394770 16.386300 -1.818420 -4.442652 -11.803111 -0.980109 -15.911552 9.155543 6.923233 34.878836 0.406029 -36.872703 -64.189414 25.079767 16.861867 1.771751 11.574862 0.667913 0.268040 0.002690 0.668030 18.386348 -6.470188 4.166162 -33.009215 4.693041 -37.715518 38.924730 -29.397973 41.306514 -1.840466 -10.604549 0.717594 -0.098750 -0.221280 0.205850 -3.087012 -2.999944 -10.616911 21.371436 -4.088052 32.962387 1.102304 2.712666 3.143441 4.813314 0.653341 -11.861555 -0.044457 0.646965 34.686057 -20.800710 13.200280 -14.377880 -18.726914 -10.510435 6.741116 -14.417186 13.876288 -6.348976 -138.160924 -69.773880 113.153331 -3.689508 3.178055 0.467850 0.016300 0.222650 -0.104060 8.724332 12.834755 6.749888 34.703138 -2.191733 -18.162409 -24.399290 70.241238 -15.928331 1.748648 -1.211354 -0.058180 -0.053730 -0.138260 -0.377090 
-0.388120 16.385930 -1.811100 -4.135149 -11.970031 -1.546106 -15.899957 9.221810 6.873893 34.322701 0.436364 -37.029934 -63.630264 25.870214 17.920468 1.831280 11.632219 0.661772 0.267250 0.005760 0.659080 18.380867 -6.521035 4.170996 -33.130591 4.928537 -37.458701 38.456834 -29.314711 41.822241 -1.845009 -10.632015 0.717561 -0.114510 -0.228180 0.199870 -3.088710 -2.980611 -10.618540 21.253922 -3.767833 33.044085 1.438726 2.949865 3.214638 4.590500 0.733193 -12.209770 0.005571 0.545281 35.754579 -20.286030 12.931060 -13.474520 -18.419925 -11.020128 7.289055 -14.124322 14.753293 -6.160521 -133.146035 -69.007320 105.667614 -3.688830 3.193848 0.454690 0.002530 0.228590 -0.093410 8.881821 13.467332 6.820810 35.584203 -1.748444 -18.938774 -30.516172 69.984502 -19.625959 1.720532 -1.080990 -0.037910 -0.063250 -0.153090 -0.358500 
-0.377510 16.421970 -1.799440 -3.848303 -12.135535 -2.001500 -15.874453 9.319929 6.817416 33.527570 0.284519 -37.204144 -62.378043 26.582676 19.328915 1.891388 11.668609 0.652336 0.294700 0.038060 0.681260 18.374710 -6.641245 4.135483 -32.713381 5.232304 -36.979249 37.460779 -28.654908 42.016747 -1.829916 -10.535279 0.740524 -0.124160 -0.264540 0.212920 -3.103071 -2.907671 -10.594185 21.224617 -3.485715 32.925781 1.308590 3.212955 3.071257 4.558064 1.079802 -12.480721 0.491575 -0.051518 36.799688 -20.513880 12.643420 -13.049740 -19.083334 -11.809328 7.703024 -13.729655 15.171995 -6.037636 -128.067303 -68.611761 98.825423 -3.677605 3.222383 0.442450 -0.020450 0.260020 -0.080360 9.578347 14.201661 6.981127 36.273032 -1.506156 -19.481606 -33.212962 69.857910 -21.444280 1.730434 -1.031744 0.007010 -0.096040 -0.190370 -0.341560 
-0.364440 16.487370 -1.782440 -3.606316 -12.109802 -2.490498 -15.816967 9.466680 6.720432 32.305211 -0.158064 -37.108506 -60.181324 26.986796 21.008705 1.846070 11.710723 0.612524 0.279460 0.018770 0.662400 18.381661 -6.854772 4.046431 -31.956986 5.483441 -36.065635 35.792179 -27.582399 42.108315 -1.755547 -10.357313 0.782825 -0.128750 -0.275970 0.201420 -3.170455 -2.783938 -10.508972 21.374228 -3.379830 32.450734 0.850781 3.229246 3.130348 4.553039 1.179988 -12.558803 0.583947 0.083441 37.977212 -20.633020 12.737900 -12.897340 -19.698665 -12.227963 7.853212 -13.871072 14.922168 -5.941343 -122.490725 -68.471626 91.854714 -3.703328 3.200148 0.460330 -0.028760 0.252850 -0.094380 10.178946 14.525892 7.013938 37.112361 -0.769829 -19.625059 -31.752146 70.128763 -20.988725 1.738906 -1.038647 -0.005720 -0.099130 -0.169420 -0.354440 
